#!OML:ASF H:\BreakDance\Project 1\Capture day 1\Session 1\Male.ASF
:FULLY-SPECIFIED
:DEGREES
250
root 17.6761 15.947 1.10383 -318.834 -84.5433 321.992
lowerback -4.13862 0.967707 4.36179
upperback 2.98972 1.10201 -2.28425
thorax 5.5727 0.755063 -4.74341
lowerneck -2.84031 -0.376014 -0.488853
upperneck 1.61832 -0.570229 3.27995
head 0.985414 -0.2493 1.08511
rclavicle -5.26779e-015 -1.51076e-014
rhumerus -43.6967 5.78825 -89.5692
rradius 41.6065
rwrist 3.13824
rhand -26.8736 -29.6628
rfingers 7.12502
rthumb -0.297981 -59.6423
lclavicle -5.26779e-015 -1.51076e-014
lhumerus -29.3164 -30.7075 86.5027
lradius 48.1876
lwrist -11.2231
lhand -12.8521 -38.7119
lfingers 7.12502
lthumb 13.2358 -9.1521
rfemur -21.4551 -7.27396 9.68445
rtibia 45.8214
rfoot -20.0601 -9.77817
rtoes -15.3596
lfemur -28.4812 8.55081 -7.15627
ltibia 52.8031
lfoot -24.0845 5.45394
ltoes -31.4135
251
root 17.6992 15.9413 1.17287 -318.03 -84.5419 321.086
lowerback -3.93923 0.91376 4.46452
upperback 3.11812 1.02598 -2.2424
thorax 5.58686 0.722863 -4.76622
lowerneck -2.92205 -0.296316 -0.588178
upperneck 1.27937 -0.454067 3.38383
head 0.892316 -0.193473 1.13535
rclavicle -7.45443e-015 4.29375e-014
rhumerus -43.9316 5.93525 -89.3199
rradius 41.2335
rwrist 3.61233
rhand -26.914 -28.8134
rfingers 7.12502
rthumb -0.337067 -58.7928
lclavicle -7.45443e-015 4.29375e-014
lhumerus -29.8886 -30.6162 87.0199
lradius 48.973
lwrist -10.3793
lhand -12.826 -38.6824
lfingers 7.12502
lthumb 13.2609 -9.12427
rfemur -21.8337 -8.08957 9.30776
rtibia 46.3694
rfoot -19.0597 -8.49738
rtoes -15.3131
lfemur -28.7716 8.57044 -7.29567
ltibia 53.3613
lfoot -23.9372 5.32991
ltoes -31.5183
252
root 17.7253 15.9333 1.2441 -317.002 -84.5977 319.946
lowerback -3.69024 0.853496 4.54614
upperback 3.25983 0.944098 -2.19429
thorax 5.58515 0.686445 -4.77096
lowerneck -3.02336 -0.227409 -0.628921
upperneck 0.909729 -0.351109 3.3737
head 0.79221 -0.145332 1.13939
rclavicle 1.27222e-014 7.95139e-016
rhumerus -43.9967 6.08499 -89.0205
rradius 40.7746
rwrist 3.92488
rhand -26.8562 -28.1547
rfingers 7.12502
rthumb -0.281224 -58.1343
lclavicle 1.27222e-014 7.95139e-016
lhumerus -30.3832 -30.2814 87.5064
lradius 49.6966
lwrist -9.56688
lhand -12.9351 -38.5797
lfingers 7.12502
lthumb 13.1558 -9.0147
rfemur -22.2926 -8.87977 8.89422
rtibia 47.0037
rfoot -17.9954 -7.14423
rtoes -15.0634
lfemur -29.0647 8.62448 -7.47352
ltibia 53.9527
lfoot -23.7923 5.24715
ltoes -31.588
253
root 17.7543 15.923 1.31681 -315.697 -84.7073 318.522
lowerback -3.40088 0.790886 4.59175
upperback 3.41179 0.862199 -2.14032
thorax 5.57009 0.648041 -4.7489
lowerneck -3.0994 -0.169419 -0.597837
upperneck 0.490144 -0.262723 3.25548
head 0.671953 -0.10601 1.09674
rclavicle 8.74653e-015 -4.77083e-015
rhumerus -43.8948 6.21799 -88.6704
rradius 40.2407
rwrist 4.07263
rhand -26.6652 -27.6854
rfingers 7.12502
rthumb -0.0967403 -57.6652
lclavicle 8.74653e-015 -4.77083e-015
lhumerus -30.792 -29.7253 87.9557
lradius 50.3439
lwrist -8.80235
lhand -13.1769 -38.4101
lfingers 7.12502
lthumb 12.9227 -8.83023
rfemur -22.842 -9.60482 8.45054
rtibia 47.7283
rfoot -16.8817 -5.71596
rtoes -14.6434
lfemur -29.3636 8.72485 -7.68189
ltibia 54.5764
lfoot -23.654 5.19595
ltoes -31.6415
254
root 17.7864 15.9097 1.39067 -314.038 -84.871 316.749
lowerback -3.09253 0.695881 4.54141
upperback 3.59574 0.739751 -2.03449
thorax 5.57 0.585055 -4.62063
lowerneck -3.23593 -0.0791872 -0.596379
upperneck 0.0436019 -0.130129 3.06744
head 0.553062 -0.0449145 1.03816
rclavicle -9.64106e-015 -1.59028e-015
rhumerus -43.5663 6.46867 -88.2339
rradius 39.66
rwrist 4.04221
rhand -26.3069 -27.4401
rfingers 7.12502
rthumb 0.249352 -57.4197
lclavicle -9.64106e-015 -1.59028e-015
lhumerus -31.0549 -28.8368 88.3746
lradius 50.9003
lwrist -8.08819
lhand -13.5631 -38.1841
lfingers 7.12502
lthumb 12.5504 -8.581
rfemur -23.5022 -10.2369 7.97947
rtibia 48.5416
rfoot -15.7211 -4.21776
rtoes -14.0358
lfemur -29.6834 8.88326 -7.91912
ltibia 55.2305
lfoot -23.529 5.15293
ltoes -31.6544
255
root 17.8217 15.8928 1.46515 -311.918 -85.0954 314.532
lowerback -2.76379 0.595325 4.41289
upperback 3.78184 0.613063 -1.9084
thorax 5.55872 0.515501 -4.42649
lowerneck -3.38301 0.0408298 -0.614208
upperneck -0.413014 0.0408919 2.87757
head 0.432884 0.0354583 0.983006
rclavicle -9.93923e-016 3.97569e-015
rhumerus -43.0718 6.74065 -87.732
rradius 39.0648
rwrist 3.88902
rhand -25.8318 -27.4071
rfingers 7.12502
rthumb 0.70824 -57.3857
lclavicle -9.93923e-016 3.97569e-015
lhumerus -31.2303 -27.7517 88.7693
lradius 51.3851
lwrist -7.3589
lhand -14.0873 -37.9107
lfingers 7.12502
lthumb 12.045 -8.27732
rfemur -24.2912 -10.7548 7.48004
rtibia 49.4357
rfoot -14.5111 -2.67345
rtoes -13.1759
lfemur -30.0367 9.10877 -8.18713
ltibia 55.9116
lfoot -23.4191 5.08529
ltoes -31.6106
256
root 17.8606 15.8715 1.53942 -309.216 -85.3778 311.752
lowerback -2.40448 0.494484 4.20399
upperback 3.96301 0.489462 -1.76952
thorax 5.5245 0.442547 -4.17267
lowerneck -3.5152 0.180287 -0.66787
upperneck -0.885992 0.23708 2.71416
head 0.305596 0.128525 0.942509
rclavicle 1.49089e-014 7.95139e-016
rhumerus -42.4164 7.01176 -87.1761
rradius 38.4685
rwrist 3.6592
rhand -25.34 -27.5535
rfingers 7.12502
rthumb 1.18315 -57.53
lclavicle 1.49089e-014 7.95139e-016
lhumerus -31.3298 -26.5344 89.1433
lradius 51.8104
lwrist -6.52395
lhand -14.677 -37.5676
lfingers 7.12502
lthumb 11.4763 -7.90173
rfemur -25.203 -11.143 6.95629
rtibia 50.3949
rfoot -13.2497 -1.13805
rtoes -12.0209
lfemur -30.4277 9.41284 -8.48178
ltibia 56.6154
lfoot -23.3193 4.96106
ltoes -31.4974
257
root 17.9026 15.8458 1.61283 -305.816 -85.717 308.295
lowerback -2.02046 0.420647 3.9396
upperback 4.12313 0.40534 -1.65476
thorax 5.45879 0.385822 -3.90958
lowerneck -3.55148 0.316448 -0.693471
upperneck -1.42051 0.42659 2.57893
head 0.14443 0.217297 0.90544
rclavicle -1.27222e-014 1.43125e-014
rhumerus -41.6403 7.17442 -86.6017
rradius 37.875
rwrist 3.37883
rhand -24.9413 -27.8517
rfingers 7.12502
rthumb 1.56825 -57.8257
lclavicle -1.27222e-014 1.43125e-014
lhumerus -31.3982 -25.3283 89.4897
lradius 52.2121
lwrist -5.49599
lhand -15.2136 -37.1001
lfingers 7.12502
lthumb 10.9587 -7.40608
rfemur -26.2238 -11.3999 6.40442
rtibia 51.3956
rfoot -11.958 0.326876
rtoes -10.6543
lfemur -30.8597 9.81346 -8.81225
ltibia 57.3356
lfoot -23.2243 4.76554
ltoes -31.3418
258
root 17.9463 15.8165 1.68478 -301.479 -86.1138 303.923
lowerback -1.62561 0.388927 3.62772
upperback 4.25249 0.380611 -1.58486
thorax 5.36099 0.356233 -3.66256
lowerneck -3.45902 0.42779 -0.676759
upperneck -2.013 0.58053 2.47973
head -0.0540899 0.287038 0.871537
rclavicle 5.36719e-015 -9.54166e-015
rhumerus -40.772 7.18052 -86.0398
rradius 37.2685
rwrist 3.1169
rhand -24.7333 -28.2647
rfingers 7.12502
rthumb 1.76915 -58.2371
lclavicle 5.36719e-015 -9.54166e-015
lhumerus -31.4632 -24.2134 89.801
lradius 52.6173
lwrist -4.23391
lhand -15.6175 -36.4929
lfingers 7.12502
lthumb 10.5691 -6.77869
rfemur -27.3288 -11.5257 5.81672
rtibia 52.4062
rfoot -10.6836 1.68478
rtoes -9.26025
lfemur -31.3239 10.3302 -9.19089
ltibia 58.0632
lfoot -23.1279 4.50186
ltoes -31.1647
259
root 17.9902 15.785 1.7548 -295.739 -86.5623 298.159
lowerback -1.23763 0.400376 3.2625
upperback 4.35639 0.415603 -1.56273
thorax 5.24574 0.354486 -3.43199
lowerneck -3.26602 0.512083 -0.62613
upperneck -2.63939 0.696746 2.41519
head -0.278021 0.336795 0.842432
rclavicle -1.88845e-015 1.19271e-014
rhumerus -39.822 7.04078 -85.5162
rradius 36.6409
rwrist 2.92842
rhand -24.6722 -28.8471
rfingers 7.12502
rthumb 1.82815 -58.819
lclavicle -1.88845e-015 1.19271e-014
lhumerus -31.5235 -23.2167 90.0684
lradius 53.0359
lwrist -2.75736
lhand -15.872 -35.721
lfingers 7.12502
lthumb 10.3236 -5.99435
rfemur -28.4824 -11.5138 5.18526
rtibia 53.3908
rfoot -9.49559 2.93937
rtoes -8.01727
lfemur -31.7975 10.9816 -9.62559
ltibia 58.7872
lfoot -23.0259 4.1813
ltoes -30.9565
260
root 18.0333 15.7524 1.82268 -287.784 -87.0307 290.187
lowerback -0.882059 0.437225 2.83278
upperback 4.4576 0.484045 -1.56634
thorax 5.14802 0.36757 -3.19071
lowerneck -3.03458 0.587397 -0.605509
upperneck -3.28538 0.802018 2.40451
head -0.514531 0.38057 0.835611
rclavicle 3.97569e-015 7.95139e-015
rhumerus -38.7594 6.83862 -85.0472
rradius 35.9862
rwrist 2.78056
rhand -24.7268 -29.6042
rfingers 7.12502
rthumb 1.77546 -59.5766
lclavicle 3.97569e-015 7.95139e-015
lhumerus -31.5409 -22.2931 90.2842
lradius 53.4703
lwrist -1.16135
lhand -16.0085 -34.7631
lfingers 7.12502
lthumb 10.192 -5.03
rfemur -29.6545 -11.3562 4.51639
rtibia 54.3152
rfoot -8.48005 4.13453
rtoes -6.98621
lfemur -32.2644 11.7711 -10.11
ltibia 59.4954
lfoot -22.9186 3.80459
ltoes -30.7381
261
root 18.0755 15.7193 1.88817 -276.571 -87.4541 278.963
lowerback -0.570822 0.525346 2.41513
upperback 4.52057 0.62011 -1.63458
thorax 5.04084 0.416101 -3.02076
lowerneck -2.5839 0.625488 -0.538947
upperneck -3.99693 0.859785 2.44772
head -0.808229 0.397642 0.838133
rclavicle 9.93923e-016 -1.82882e-014
rhumerus -37.6957 6.43775 -84.6844
rradius 35.3213
rwrist 2.70688
rhand -24.9527 -30.4031
rfingers 7.12502
rthumb 1.55727 -60.3772
lclavicle 9.93923e-016 -1.82882e-014
lhumerus -31.607 -21.593 90.4417
lradius 53.9295
lwrist 0.457733
lhand -16.089 -33.6454
lfingers 7.12502
lthumb 10.1143 -3.90847
rfemur -30.8208 -11.0488 3.83308
rtibia 55.1501
rfoot -7.69741 5.30419
rtoes -6.14025
lfemur -32.7218 12.6772 -10.619
ltibia 60.1793
lfoot -22.8127 3.36889
ltoes -30.511
262
root 18.1174 15.6856 1.95123 -261.377 -87.7463 263.765
lowerback -0.305799 0.637888 2.01086
upperback 4.5858 0.785767 -1.73381
thorax 4.96401 0.481197 -2.89005
lowerneck -2.08402 0.651539 -0.468965
upperneck -4.72237 0.904457 2.532
head -1.11808 0.406265 0.853809
rclavicle 2.38542e-015 5.56597e-015
rhumerus -36.5373 5.93688 -84.4199
rradius 34.6692
rwrist 2.68591
rhand -25.281 -31.2159
rfingers 7.12502
rthumb 1.24021 -61.192
lclavicle 2.38542e-015 5.56597e-015
lhumerus -31.6168 -21.052 90.5194
lradius 54.3868
lwrist 1.98093
lhand -16.1894 -32.4075
lfingers 7.12502
lthumb 10.0174 -2.66594
rfemur -31.9666 -10.5877 3.163
rtibia 55.8707
rfoot -7.16935 6.43771
rtoes -5.38352
lfemur -33.1753 13.6668 -11.122
ltibia 60.8369
lfoot -22.7126 2.88519
ltoes -30.2617
263
root 18.1602 15.6505 2.01166 -243.527 -87.8174 245.917
lowerback -0.0725736 0.760026 1.64342
upperback 4.65674 0.960585 -1.84392
thorax 4.91155 0.552946 -2.79179
lowerneck -1.56938 0.679066 -0.421884
upperneck -5.44456 0.954641 2.64994
head -1.43451 0.41621 0.884591
rclavicle 1.39149e-015 -2.38542e-014
rhumerus -35.2776 5.40662 -84.2659
rradius 34.0599
rwrist 2.68135
rhand -25.6272 -32.0633
rfingers 7.12502
rthumb 0.905797 -62.0411
lclavicle 1.39149e-015 -2.38542e-014
lhumerus -31.5466 -20.638 90.5208
lradius 54.8232
lwrist 3.3117
lhand -16.3622 -31.1006
lfingers 7.12502
lthumb 9.85075 -1.351
rfemur -33.0849 -9.97075 2.53817
rtibia 56.4543
rfoot -6.88187 7.49735
rtoes -4.54598
lfemur -33.6347 14.7077 -11.5866
ltibia 61.4737
lfoot -22.615 2.38315
ltoes -30.0453
264
root 18.2051 15.6128 2.06921 -227.079 -87.6443 229.476
lowerback 0.158436 0.881568 1.32544
upperback 4.74177 1.13061 -1.94858
thorax 4.87471 0.624269 -2.71689
lowerneck -1.08246 0.71239 -0.394549
upperneck -6.15444 1.0141 2.76525
head -1.74744 0.430109 0.918424
rclavicle 4.17448e-015 3.18055e-015
rhumerus -33.885 4.88241 -84.2165
rradius 33.4965
rwrist 2.74512
rhand -25.9829 -32.9257
rfingers 7.12502
rthumb 0.56229 -62.9047
lclavicle 4.17448e-015 3.18055e-015
lhumerus -31.3468 -20.3269 90.4492
lradius 55.2032
lwrist 4.38409
lhand -16.6353 -29.7692
lfingers 7.12502
lthumb 9.58719 -0.00732997
rfemur -34.1634 -9.21039 1.98047
rtibia 56.879
rfoot -6.79352 8.44317
rtoes -3.58659
lfemur -34.1072 15.7666 -11.9904
ltibia 62.0976
lfoot -22.5374 1.87983
ltoes -29.8973
